<?xml version="1.0" encoding="UTF-8"?>
<svg xmlns="http://www.w3.org/2000/svg" xmlns:xlink="http://www.w3.org/1999/xlink" version="1.1" width="624px" height="547px" style="shape-rendering: geometricprecision; text-rendering: geometricprecision; fill-rule: evenodd; clip-rule: evenodd; background: transparent;">

<g><path style="opacity:1" fill="#fdb37a" d="M 273.5,7.5 C 256.782,7.14846 240.115,7.81513 223.5,9.5C 227.944,8.18732 232.611,7.35399 237.5,7 C 249.674,6.17366 261.674,6.34033 273.5,7.5 Z"/></g>
<g><path style="opacity:1" fill="#f97316" d="M 273.5,7.5 C 340.102,15.2007 390.268,47.8673 424,105.5C 444.309,144.243 451.476,185.243 445.5,228.5C 463.668,217.584 481.668,206.417 499.5,195C 502.043,193.618 504.043,191.785 505.5,189.5C 527.139,176.007 548.139,161.507 568.5,146C 569.332,145.312 569.998,145.479 570.5,146.5C 552.079,164.593 533.079,181.927 513.5,198.5C 442.688,254.425 364.688,298.258 279.5,330C 247.423,341.103 214.423,346.936 180.5,347.5C 127.562,347.109 83.7289,327.109 49,287.5C 37.8892,272.615 29.3892,256.281 23.5,238.5C 23.8457,237.304 24.3457,237.304 25,238.5C 42.6008,268.768 66.7674,292.268 97.5,309C 98.5,309.667 99.5,309.667 100.5,309C 91.3156,293.468 83.649,277.302 77.5,260.5C 76.2042,255.607 74.5376,250.94 72.5,246.5C 55.5025,171.732 74.5025,107.899 129.5,55C 156.494,31.1525 187.827,15.9858 223.5,9.5C 240.115,7.81513 256.782,7.14846 273.5,7.5 Z"/></g>
<g><path style="opacity:1" fill="#faf9f8" d="M 173.5,169.5 C 171.485,168.076 169.152,167.41 166.5,167.5C 149.922,160.371 141.256,147.704 140.5,129.5C 144.496,101.668 160.496,88.8347 188.5,91C 217.926,101.685 226.76,121.518 215,150.5C 204.993,165.086 191.159,171.419 173.5,169.5 Z"/></g>
<g><path style="opacity:1" fill="#0e0d0d" d="M 522.5,226.5 C 522.072,223.215 521.072,220.215 519.5,217.5C 517.898,211.029 515.898,204.696 513.5,198.5C 533.079,181.927 552.079,164.593 570.5,146.5C 569.998,145.479 569.332,145.312 568.5,146C 548.139,161.507 527.139,176.007 505.5,189.5C 492.2,182.558 478.867,175.558 465.5,168.5C 464.438,167.575 464.438,166.575 465.5,165.5C 467.553,165.598 469.22,164.931 470.5,163.5C 473.241,163.293 475.574,162.293 477.5,160.5C 482.478,159.068 487.144,157.068 491.5,154.5C 528.468,139.352 565.468,124.186 602.5,109C 603.833,108.333 605.167,108.333 606.5,109C 581.815,158.203 556.982,207.37 532,256.5C 528.524,246.574 525.358,236.574 522.5,226.5 Z"/></g>
<g><path style="opacity:1" fill="#adadad" d="M 491.5,154.5 C 487.144,157.068 482.478,159.068 477.5,160.5C 481.691,157.542 486.358,155.542 491.5,154.5 Z"/></g>
<g><path style="opacity:1" fill="#939393" d="M 477.5,160.5 C 475.574,162.293 473.241,163.293 470.5,163.5C 472.426,161.707 474.759,160.707 477.5,160.5 Z"/></g>
<g><path style="opacity:1" fill="#8a8a8a" d="M 470.5,163.5 C 469.22,164.931 467.553,165.598 465.5,165.5C 466.78,164.069 468.447,163.402 470.5,163.5 Z"/></g>
<g><path style="opacity:1" fill="#facfad" d="M 166.5,167.5 C 169.152,167.41 171.485,168.076 173.5,169.5C 170.848,169.59 168.515,168.924 166.5,167.5 Z"/></g>
<g><path style="opacity:1" fill="#858585" d="M 519.5,217.5 C 521.072,220.215 522.072,223.215 522.5,226.5C 520.528,223.916 519.528,220.916 519.5,217.5 Z"/></g>
<g><path style="opacity:1" fill="#fbd5b8" d="M 72.5,246.5 C 74.5376,250.94 76.2042,255.607 77.5,260.5C 74.6761,256.37 73.0094,251.703 72.5,246.5 Z"/></g>
<g><path style="opacity:1" fill="#f97316" d="M 432.5,266.5 C 433.043,266.56 433.376,266.893 433.5,267.5C 420.312,296.885 404.812,324.885 387,351.5C 345.897,412.709 303.564,473.042 260,532.5C 258.887,534.329 257.387,535.163 255.5,535C 213.862,478.194 173.195,420.694 133.5,362.5C 134,362.167 134.5,361.833 135,361.5C 161.345,369.4 188.178,371.567 215.5,368C 266.831,360.318 314.831,343.318 359.5,317C 385.293,302.118 409.627,285.284 432.5,266.5 Z"/></g>
</svg>
